<?xml version="1.0" encoding="UTF-8" standalone="no"?>
<!-- Created with Inkscape (http://www.inkscape.org/) -->

<svg
   width="158.95413mm"
   height="167.82114mm"
   viewBox="0 0 158.95413 167.82114"
   version="1.1"
   id="svg1"
   xml:space="preserve"
   xmlns="http://www.w3.org/2000/svg"
   xmlns:svg="http://www.w3.org/2000/svg"
>
<defs id="defs1" />
  <g
     id="layer1"
     transform="translate(-2877.6876,-951.30866)"
  >
  <g
       id="g38"
       transform="translate(2.51685)"
       style="fill:#ffffff"><path
         style="fill:#ffffff"
         d="m 2947.7272,1117.8349 c -2.1425,-2.2787 -7.6789,-6.1596 -11.3055,-7.925 -16.6304,-8.0952 -36.6286,-7.621 -56.9268,1.3502 -2.0145,0.8903 -3.8116,1.6813 -3.9935,1.7578 -0.2639,0.111 -0.3307,-9.4228 -0.3307,-47.1594 v -47.2986 l 1.1135,-1.4792 c 1.598,-2.1228 3.3806,-3.9773 4.2606,-4.4323 0.4182,-0.2163 0.7965,-0.3547 0.8405,-0.3076 0.2758,0.2952 0.7446,29.4605 0.8551,53.2007 0.072,15.3889 0.17,27.9797 0.2185,27.9797 0.048,0 1.4943,-0.3426 3.213,-0.7614 4.7046,-1.1462 8.0626,-1.4592 13.6479,-1.272 20.8543,0.699 40.8801,11.2604 49.1263,25.9085 0.4699,0.8348 0.8142,1.6087 0.765,1.7198 -0.049,0.1111 -0.7169,-0.4654 -1.4839,-1.2812 z m 2.4957,-8.0685 c -8.5089,-11.52 -25.3143,-20.225 -43.6991,-22.6356 -3.7708,-0.4944 -13.8439,-0.4225 -17.0553,0.1218 -1.3768,0.2334 -2.5674,0.3601 -2.6459,0.2818 -0.078,-0.078 -0.1811,-19.5252 -0.2281,-43.215 l -0.086,-43.0725 0.8636,-0.301 c 3.0533,-1.0644 13.9987,-1.5367 19.5482,-0.8435 16.7653,2.0942 31.488,8.3028 40.8224,17.2149 2.0404,1.948 3.0147,3.0975 3.5506,4.1886 l 0.7384,1.5039 0.07,35.851 c 0.039,19.7181 0.039,39.7894 0,44.603 l -0.07,8.7521 z"
         id="path37" /><path
         style="fill:#ffffff"
         d="m 2961.5684,1117.8349 c 2.1425,-2.2787 7.6789,-6.1596 11.3055,-7.925 16.6304,-8.0952 36.6286,-7.621 56.9268,1.3502 2.0145,0.8903 3.8116,1.6813 3.9935,1.7578 0.2639,0.111 0.3307,-9.4228 0.3307,-47.1594 v -47.2986 l -1.1135,-1.4792 c -1.598,-2.1228 -3.3806,-3.9773 -4.2606,-4.4323 -0.4182,-0.2163 -0.7965,-0.3547 -0.8405,-0.3076 -0.2758,0.2952 -0.7446,29.4605 -0.8551,53.2007 -0.072,15.3889 -0.17,27.9797 -0.2185,27.9797 -0.048,0 -1.4943,-0.3426 -3.213,-0.7614 -4.7046,-1.1462 -8.0626,-1.4592 -13.6479,-1.272 -20.8543,0.699 -40.8801,11.2604 -49.1263,25.9085 -0.4699,0.8348 -0.8142,1.6087 -0.765,1.7198 0.049,0.1111 0.7169,-0.4654 1.4839,-1.2812 z m -2.4957,-8.0685 c 8.5089,-11.52 25.3143,-20.225 43.6991,-22.6356 3.7708,-0.4944 13.8439,-0.4225 17.0553,0.1218 1.3768,0.2334 2.5674,0.3601 2.6459,0.2818 0.078,-0.078 0.1811,-19.5252 0.2281,-43.215 l 0.086,-43.0725 -0.8636,-0.301 c -3.0533,-1.0644 -13.9987,-1.5367 -19.5482,-0.8435 -16.7653,2.0942 -31.488,8.3028 -40.8224,17.2149 -2.0404,1.948 -3.0147,3.0975 -3.5506,4.1886 l -0.7384,1.5039 -0.07,35.851 c -0.039,19.7181 -0.039,39.7894 0,44.603 l 0.07,8.7521 z"
         id="path38" /></g><path
       id="circle38"
       style="fill:#ffffff;stroke-width:0.206667;stroke-linecap:square;stroke-linejoin:round;stroke-miterlimit:10.36"
       d="m 2957.1644,951.30868 a 56.484687,56.484687 0 0 0 -56.4844,56.48482 h 16.1384 a 40.346206,40.346206 0 0 1 40.346,-40.34656 40.346206,40.346206 0 0 1 40.3466,40.34656 h 16.1383 a 56.484687,56.484687 0 0 0 -56.4849,-56.48482 z" 
  /></g></svg>
